# AST/ASF file generated using VICON BodyLanguage
# -----------------------------------------------
:version 1.10
:name VICON
:units
  mass 1.0
  length 0.45
  angle deg
:documentation
   .ast/.asf automatically generated from VICON data using
   VICON BodyBuilder and BodyLanguage model FoxedUp or BRILLIANT.MOD
:root
   order TX TY TZ RX RY RZ
   axis XYZ
   position 0 0 0  
   orientation 0 0 0 
:bonedata
  begin
     id 1 
     name lhipjoint
     direction 0.567149 -0.783011 0.255413 
     length 2.28399 
     axis 0 0 0  XYZ
  end
  begin
     id 2 
     name lfemur
     direction 0.34202 -0.939693 0  
     length 7.34031  
     axis 0 0 20  XYZ
    dof rx ry rz
    limits (-160.0 20.0)
           (-70.0 70.0)
           (-60.0 70.0)
  end
  begin
     id 3 
     name ltibia
     direction 0.34202 -0.939693 0   
     length 6.9833   
     axis 0 0 20   XYZ
    dof rx
    limits (-10.0 170.0)
  end
  begin
     id 4 
     name lfoot
     direction 0.136498 -0.375025 0.91691   
     length 2.33665   
     axis -90 7.62852e-016 20   XYZ
    dof rx rz
    limits (-45.0 90.0)
           (-70.0 20.0)
  end
  begin
     id 5 
     name ltoes
     direction 1.5367e-011 -4.21617e-011 1   
     length 1.15039   
     axis -90 7.62852e-016 20   XYZ
    dof rx
    limits (-90.0 20.0)
  end
  begin
     id 6 
     name rhipjoint
     direction -0.602854 -0.758518 0.247423   
     length 2.35775  
     axis 0 0 0  XYZ 
  end
  begin
     id 7 
     name rfemur
     direction -0.34202 -0.939693 0   
     length 7.43932   
     axis 0 0 -20   XYZ
    dof rx ry rz
    limits (-160.0 20.0)
           (-70.0 70.0)
           (-70.0 60.0)
  end
  begin
     id 8 
     name rtibia
     direction -0.34202 -0.939693 0   
     length 7.11893   
     axis 0 0 -20   XYZ
    dof rx
    limits (-10.0 170.0)
 end
 begin
     id 9 
     name rfoot
     direction -0.131771 -0.362037 0.922803   
     length 2.53019  
     axis -90 -7.62852e-016 -20   XYZ
    dof rx rz
    limits (-45.0 90.0)
           (-20.0 70.0)
  end
  begin
     id 10 
     name rtoes
     direction -1.53733e-011 -4.21932e-011 1   
     length 1.24596   
     axis -90 -7.62852e-016 -20   XYZ
    dof rx
    limits (-90.0 20.0)
  end
  begin
     id 11 
     name lowerback
     direction 0.0235427 0.999023 -0.0374125   
     length 2.21768   
     axis 0 0 0   XYZ
    dof rx ry rz
    limits (-20.0 45.0)
           (-30.0 30.0)
           (-30.0 30.0)
  end
  begin
     id 12 
     name upperback
     direction 0.0302156 0.996818 -0.073759   
     length 2.20352   
     axis 0 0 0   XYZ
    dof rx ry rz
    limits (-20.0 45.0)
           (-30.0 30.0)
           (-30.0 30.0)
  end
  begin
     id 13 
     name thorax
     direction 0.0187169 0.998235 -0.0563532   
     length 2.22103   
     axis 0 0 0   XYZ
    dof rx ry rz
    limits (-20.0 45.0)
           (-30.0 30.0)
           (-30.0 30.0)
  end
  begin
     id 14 
     name lowerneck
     direction -0.119528 0.987423 0.103481   
     length 1.72948   
     axis 0 0 0   XYZ
    dof rx ry rz
    limits (-20.0 45.0)
           (-30.0 30.0)
           (-30.0 30.0)
  end
  begin
     id 15 
     name upperneck
     direction 0.248049 0.963095 -0.104496   
     length 1.74979   
     axis 0 0 0   XYZ
    dof rx ry rz
    limits (-20.0 45.0)
           (-30.0 30.0)
           (-30.0 30.0)
  end
  begin
     id 16
     name head
     direction 0.0903589 0.994284 -0.056876  
     length 1.78268  
     axis 0 0 0   XYZ
    dof rx ry rz
    limits (-20.0 45.0)
           (-30.0 30.0)
           (-30.0 30.0)
  end
  begin
     id 17 
     name lclavicle
     direction 0.946008 0.242039 -0.215608  
     length 3.80783  
     axis 0 0 0   XYZ
    dof ry rz
    limits (-20.0 10.0)
           (0.0 20.0)
  end
  begin
     id 18 
     name lhumerus
     direction 1 -4.48991e-011 -2.25695e-027   
     length 4.83125   
     axis 180 -30 -90   XYZ
    dof rx ry rz
    limits (-60.0 90.0)
           (-90.0 90.0)
           (-90.0 90.0)
  end
  begin
     id 19
     name lradius
     direction 0.999991 0.00366712 -0.00211721   
     length 3.00391   
     axis 180 -30 -90   XYZ
    dof rx
    limits (-10.0 170.0)
  end
  begin
     id 20
     name lwrist
     direction 0.999991 0.00393016 -0.00141978   
     length 1.50195   
     axis -1.00488e-014 90 90   XYZ
    dof ry
    limits (-180.0 0.0)
 end
  begin
     id 21 
     name lhand
     direction 1 -4.49123e-011 2.72098e-026   
     length 1.2717   
     axis -1.73687e-014 90 90   XYZ
    dof rx rz
    limits (-90.0 90.0)
           (-45.0 45.0)
  end
  begin
     id 22 
     name lfingers
     direction 1 -4.48678e-011 5.4479e-026   
     length 1.02528   
     axis -3.47372e-014 90 90   XYZ
    dof rx
    limits (0.0 90.0)
  end
  begin
     id 23
     name lthumb
     direction 0.707107 -6.34851e-011 0.707107   
     length 1.4721   
     axis -90 45 -1.62303e-014   XYZ
    dof rx rz
    limits (-45.0 45.0)
           (-45.0 45.0)
  end
  begin
     id 24 
     name rclavicle
     direction -0.981723 0.189447 -0.0181673   
     length 3.74989  
     axis 0 0 0   XYZ 
    dof ry rz
    limits (-10.0 20.0)
           (-20.0 0.0)
  end
  begin
     id 25 
     name rhumerus
     direction -1 -4.48985e-011 2.38206e-027  
     length 4.61118   
     axis 180 30 90   XYZ
    dof rx ry rz
    limits (-90.0 60.0)
           (-90.0 90.0)
           (-90.0 90.0)
  end
  begin
     id 26 
     name rradius
     direction -1 -4.48977e-011 7.41019e-027   
     length 2.91491   
     axis 180 30 90   XYZ
    dof rx
    limits (-10.0 170.0)
  end
  begin
     id 27 
     name rwrist
     direction -1 -4.48549e-011 1.3624e-026   
     length 1.45745   
     axis -1.00488e-014 -90 -90   XYZ
    dof ry
    limits (-180.0 0.0)
  end
  begin
     id 28
     name rhand
     direction -1 -4.49107e-011 2.72109e-026   
     length 1.30769   
     axis -1.73687e-014 -90 -90   XYZ
    dof rx rz
    limits (-90.0 90.0)
           (-45.0 45.0)
  end
  begin
     id 29
     name rfingers
     direction -1 -4.48919e-011 5.44468e-026   
     length 1.05429   
     axis -3.47372e-014 -90 -90   XYZ
    dof rx
    limits (0.0 90.0)
  end
  begin
     id 30
     name rthumb
     direction -0.707107 -6.35315e-011 0.707107   
     length 1.51376   
     axis -90 -45 1.62303e-014   XYZ
    dof rx rz
    limits (-45.0 45.0)
           (-45.0 45.0)
  end
:hierarchy
  begin
    root lhipjoint rhipjoint lowerback
    lhipjoint lfemur
    lfemur ltibia
    ltibia lfoot
    lfoot ltoes
    rhipjoint rfemur
    rfemur rtibia
    rtibia rfoot
    rfoot rtoes
    lowerback upperback
    upperback thorax
    thorax lowerneck lclavicle rclavicle
    lowerneck upperneck
    upperneck head
    lclavicle lhumerus
    lhumerus lradius
    lradius lwrist
    lwrist lhand lthumb
    lhand lfingers
    rclavicle rhumerus
    rhumerus rradius
    rradius rwrist
    rwrist rhand rthumb
    rhand rfingers
  end

#!OML:ASF X:\für Bonn\!DataBase\2005_08_11_Bastian_Final\c3d\Bastian.ASF
:FULLY-SPECIFIED
:DEGREES
16
root 1.01066 17.2099 -0.270331 172.885 -7.55802 -175.416
lowerback 11.8968 -1.88505 -1.83563
upperback 3.41156 -3.01432 0.913178
thorax -2.95053 -1.6357 2.41547
lowerneck -9.29189 -6.31944 -3.47482
upperneck -1.45801 -8.66982 9.14771
head 1.77169 -4.31754 3.16979
rclavicle 3.04141e-014 -1.98785e-015
rhumerus 76.2326 10.7749 16.663
rradius 40.7498
rwrist -69.7504
rhand -44.7308 -4.35245
rfingers 7.12502
rthumb -17.5246 -33.5826
lclavicle 3.04141e-014 -1.98785e-015
lhumerus 74.3528 -15.6967 -29.2237
lradius 32.087
lwrist 26.1067
lhand -41.9213 14.6537
lfingers 7.12502
lthumb -14.8193 44.1038
rfemur -6.31885 -2.17397 25.5818
rtibia 42.8971
rfoot -22.7163 -12.7273
rtoes -7.81115
lfemur -0.921684 4.3833 -14.4145
ltibia 35.1186
lfoot -19.4597 -7.78436
ltoes -16.937
17
root 1.01169 17.1871 -0.246925 172.524 -7.59341 -175.419
lowerback 12.4728 -1.86499 -1.79181
upperback 3.49867 -3.01503 0.869568
thorax -3.17865 -1.64269 2.37165
lowerneck -9.20556 -6.34739 -3.44722
upperneck -1.44684 -8.70423 9.09247
head 1.75731 -4.33507 3.14619
rclavicle 4.12478e-015 -1.59028e-015
rhumerus 76.2749 11.234 16.3162
rradius 40.712
rwrist -69.2244
rhand -44.659 -4.62158
rfingers 7.12502
rthumb -17.4555 -33.8579
lclavicle 4.12478e-015 -1.59028e-015
lhumerus 74.0901 -16.1248 -26.762
lradius 31.9018
lwrist 24.4007
lhand -42.2398 14.5554
lfingers 7.12502
lthumb -15.1262 43.9826
rfemur -6.45577 -2.50977 25.5542
rtibia 43.6808
rfoot -22.7771 -12.7252
rtoes -7.25152
lfemur -1.20782 4.08205 -14.4463
ltibia 36.1841
lfoot -19.5309 -7.78804
ltoes -16.0977
18
root 1.01278 17.1613 -0.223254 172.158 -7.62036 -175.337
lowerback 13.046 -1.85362 -1.65167
upperback 3.58581 -3.01396 0.877819
thorax -3.40653 -1.64998 2.32741
lowerneck -9.22313 -6.39457 -3.54647
upperneck -1.38115 -8.75167 9.05808
head 1.78878 -4.35389 3.14862
rclavicle 6.95746e-015 -4.77083e-015
rhumerus 76.3407 11.5812 16.3553
rradius 40.7793
rwrist -68.91
rhand -44.6273 -5.01542
rfingers 7.12502
rthumb -17.425 -34.2544
lclavicle 6.95746e-015 -4.77083e-015
lhumerus 73.7412 -16.5034 -24.1612
lradius 31.6284
lwrist 22.4218
lhand -42.4038 14.3082
lfingers 7.12502
lthumb -15.2841 43.7235
rfemur -6.62183 -2.96037 25.5784
rtibia 44.4857
rfoot -22.8564 -12.5572
rtoes -6.6339
lfemur -1.61944 3.79567 -14.3811
ltibia 37.4816
lfoot -19.6538 -7.79878
ltoes -15.4242
19
root 1.01407 17.1319 -0.197138 171.767 -7.65199 -175.186
lowerback 13.6775 -1.8556 -1.36112
upperback 3.65871 -3.01032 0.861936
thorax -3.68907 -1.656 2.1764
lowerneck -9.2965 -6.45651 -3.68662
upperneck -1.26568 -8.81969 9.07671
head 1.85393 -4.38 3.17321
rclavicle 5.67033e-014 -1.27222e-014
rhumerus 76.336 11.8578 16.6285
rradius 40.9398
rwrist -68.8257
rhand -44.639 -5.41415
rfingers 7.12502
rthumb -17.4362 -34.6521
lclavicle 5.67033e-014 -1.27222e-014
lhumerus 73.464 -16.7866 -22.0671
lradius 31.4286
lwrist 20.7997
lhand -42.504 13.9618
lfingers 7.12502
lthumb -15.3807 43.3697
rfemur -6.78528 -3.49408 25.6458
rtibia 45.3061
rfoot -22.9123 -12.3004
rtoes -6.29525
lfemur -2.13756 3.51588 -14.2321
ltibia 38.9868
lfoot -19.7861 -7.83922
ltoes -14.7379
20
root 1.0157 17.0985 -0.169821 171.398 -7.66128 -174.972
lowerback 14.2982 -1.86875 -1.01132
upperback 3.72766 -3.00837 0.876035
thorax -3.96992 -1.6641 2.0232
lowerneck -9.40079 -6.51936 -3.90016
upperneck -1.14656 -8.88127 9.1191
head 1.93142 -4.40163 3.2189
rclavicle -3.54831e-014 -7.55382e-015
rhumerus 76.3797 12.0189 16.9925
rradius 41.0853
rwrist -68.8181
rhand -44.6579 -5.81283
rfingers 7.12502
rthumb -17.4544 -35.0492
lclavicle -3.54831e-014 -7.55382e-015
lhumerus 73.1929 -16.999 -20.3028
lradius 31.2504
lwrist 19.3481
lhand -42.4964 13.5893
lfingers 7.12502
lthumb -15.3733 42.9977
rfemur -6.9848 -3.96245 25.7782
rtibia 46.1259
rfoot -22.9436 -12.0179
rtoes -6.10048
lfemur -2.78547 3.28194 -13.9996
ltibia 40.6693
lfoot -19.876 -7.91842
ltoes -14.1647
21
root 1.01725 17.0604 -0.142481 171.003 -7.68514 -174.709
lowerback 14.9635 -1.90063 -0.600835
upperback 3.79531 -3.01892 0.904294
thorax -4.27681 -1.6801 1.85524
lowerneck -9.48519 -6.58184 -4.20451
upperneck -1.05458 -8.93583 9.24135
head 2.00664 -4.42018 3.31021
rclavicle 1.8487e-014 -3.97569e-015
rhumerus 76.4019 12.1924 17.1177
rradius 41.1668
rwrist -68.6617
rhand -44.6279 -6.09206
rfingers 7.12502
rthumb -17.4256 -35.331
lclavicle 1.8487e-014 -3.97569e-015
lhumerus 72.9369 -17.2188 -18.7895
lradius 31.1124
lwrist 18.0742
lhand -42.4736 13.195
lfingers 7.12502
lthumb -15.3514 42.6052
rfemur -7.15742 -4.36627 25.973
rtibia 46.951
rfoot -22.9701 -11.814
rtoes -6.32443
lfemur -3.50919 3.06759 -13.7004
ltibia 42.4943
lfoot -19.9223 -8.05567
ltoes -13.5732
22
root 1.0189 17.0166 -0.114241 170.638 -7.70425 -174.385
lowerback 15.6004 -1.94209 -0.133372
upperback 3.85347 -3.02541 0.957487
thorax -4.57868 -1.69532 1.67977
lowerneck -9.61887 -6.64957 -4.5338
upperneck -0.923168 -8.99576 9.37808
head 2.10747 -4.43903 3.40946
rclavicle 2.94698e-014 4.77083e-015
rhumerus 76.4074 12.3935 16.8936
rradius 41.1128
rwrist -68.3064
rhand -44.5411 -6.19622
rfingers 7.12502
rthumb -17.342 -35.4425
lclavicle 2.94698e-014 4.77083e-015
lhumerus 72.7376 -17.4342 -17.5781
lradius 30.9625
lwrist 17.0018
lhand -42.4219 12.7638
lfingers 7.12502
lthumb -15.3016 42.1777
rfemur -7.36049 -4.72078 26.2198
rtibia 47.7715
rfoot -23.0694 -11.5084
rtoes -6.33291
lfemur -4.38118 2.89239 -13.329
ltibia 44.4599
lfoot -19.9725 -8.21192
ltoes -13.0463
23
root 1.02059 16.9651 -0.0861634 170.297 -7.72951 -174.083
lowerback 16.225 -1.9851 0.310102
upperback 3.90028 -3.03037 1.00222
thorax -4.88409 -1.71001 1.50858
lowerneck -9.74844 -6.71536 -4.8003
upperneck -0.811114 -9.05718 9.47369
head 2.19551 -4.46039 3.48341
rclavicle -3.33461e-014 -7.55382e-015
rhumerus 76.4048 12.6031 16.4094
rradius 40.9763
rwrist -67.8589
rhand -44.4265 -6.18455
rfingers 7.12502
rthumb -17.2317 -35.4405
lclavicle -3.33461e-014 -7.55382e-015
lhumerus 72.5363 -17.6548 -16.4893
lradius 30.8441
lwrist 16.0505
lhand -42.3841 12.2902
lfingers 7.12502
lthumb -15.2652 41.7069
rfemur -7.58884 -4.99338 26.4332
rtibia 48.6199
rfoot -23.2761 -11.1583
rtoes -6.03347
lfemur -5.35167 2.71978 -12.9829
ltibia 46.5407
lfoot -19.9905 -8.39647
ltoes -12.5274
24
root 1.02282 16.905 -0.0585279 169.985 -7.75017 -173.761
lowerback 16.812 -2.03276 0.746754
upperback 3.94317 -3.03582 1.05231
thorax -5.17167 -1.72571 1.3454
lowerneck -9.89675 -6.76032 -5.04402
upperneck -0.695821 -9.09669 9.60377
head 2.28796 -4.4708 3.5664
rclavicle 1.97294e-014 7.95139e-016
rhumerus 76.4129 12.7817 15.8518
rradius 40.8092
rwrist -67.499
rhand -44.3648 -6.03387
rfingers 7.12502
rthumb -17.1723 -35.2951
lclavicle 1.97294e-014 7.95139e-016
lhumerus 72.3697 -17.8648 -15.7377
lradius 30.7851
lwrist 15.3562
lhand -42.3954 11.8763
lfingers 7.12502
lthumb -15.276 41.2922
rfemur -7.86411 -5.22645 26.6641
rtibia 49.5058
rfoot -23.5547 -10.7628
rtoes -5.62288
lfemur -6.42886 2.68403 -12.5711
ltibia 48.736
lfoot -19.9553 -8.6766
ltoes -12.0237
25
root 1.02613 16.8341 -0.0327631 169.676 -7.82157 -173.434
lowerback 17.3768 -2.09068 1.14482
upperback 3.9894 -3.05598 1.11898
thorax -5.43983 -1.74943 1.22373
lowerneck -10.0109 -6.80298 -5.23495
upperneck -0.64216 -9.13719 9.71422
head 2.34933 -4.48517 3.63432
rclavicle 1.30701e-014 1.59028e-015
rhumerus 76.3955 12.9595 15.1817
rradius 40.6248
rwrist -67.0986
rhand -44.3304 -5.79663
rfingers 7.12502
rthumb -17.1393 -35.0607
lclavicle 1.30701e-014 1.59028e-015
lhumerus 72.2164 -18.0585 -15.0795
lradius 30.7295
lwrist 14.7268
lhand -42.406 11.5183
lfingers 7.12502
lthumb -15.2863 40.9334
rfemur -8.17926 -5.47905 26.8909
rtibia 50.4871
rfoot -23.9469 -10.3361
rtoes -5.07394
lfemur -7.56378 2.68724 -12.127
ltibia 51.0186
lfoot -19.9523 -9.08208
ltoes -11.573
26
root 1.0303 16.7521 -0.00875937 169.341 -7.89945 -173.113
lowerback 17.9449 -2.15207 1.50914
upperback 4.0467 -3.08386 1.1956
thorax -5.69486 -1.77838 1.13382
lowerneck -10.1513 -6.81868 -5.41508
upperneck -0.468643 -9.15079 10.1551
head 2.23001 -4.46501 3.43663
rclavicle 2.48481e-015 1.98785e-015
rhumerus 76.3676 13.1058 14.5063
rradius 40.4481
rwrist -66.7392
rhand -44.2951 -5.46759
rfingers 7.12502
rthumb -17.1053 -34.7346
lclavicle 2.48481e-015 1.98785e-015
lhumerus 72.1165 -18.2513 -14.7923
lradius 30.7471
lwrist 14.4424
lhand -42.5442 11.2558
lfingers 7.12502
lthumb -15.4194 40.6607
rfemur -8.49861 -5.7689 27.1058
rtibia 51.5766
rfoot -24.4012 -9.94636
rtoes -4.75569
lfemur -8.67505 2.62261 -11.7036
ltibia 53.3718
lfoot -20.037 -9.4182
ltoes -11.4142
27
root 1.03206 16.6569 0.0165675 169.05 -7.90923 -172.879
lowerback 18.5009 -2.18304 1.82324
upperback 4.09124 -3.07613 1.23711
thorax -5.95587 -1.78886 1.02709
lowerneck -10.2097 -6.83249 -5.66358
upperneck -0.491277 -9.15389 10.4017
head 2.25754 -4.46233 3.54751
rclavicle 3.37934e-015 -9.93923e-015
rhumerus 76.2767 13.2478 13.7848
rradius 40.2776
rwrist -66.2808
rhand -44.3147 -5.16495
rfingers 7.12502
rthumb -17.1242 -34.4303
lclavicle 3.37934e-015 -9.93923e-015
lhumerus 72.0773 -18.4027 -14.6825
lradius 30.7918
lwrist 14.2818
lhand -42.6872 11.1283
lfingers 7.12502
lthumb -15.5571 40.5225
rfemur -8.95078 -6.0103 27.2239
rtibia 52.8379
rfoot -24.9526 -9.55129
rtoes -4.55008
lfemur -9.79592 2.465 -11.4154
ltibia 55.7438
lfoot -20.0876 -9.621
ltoes -11.2513
28
root 1.03266 16.5537 0.0427189 168.769 -7.85068 -172.689
lowerback 19.0722 -2.19273 2.08299
upperback 4.12449 -3.04572 1.28224
thorax -6.23328 -1.78789 0.950663
lowerneck -10.2019 -6.82528 -5.94971
upperneck -0.576008 -9.12745 10.707
head 2.25869 -4.44779 3.68732
rclavicle 2.16178e-014 -2.5842e-014
rhumerus 76.1877 13.3684 13.1075
rradius 40.1217
rwrist -65.7285
rhand -44.2939 -4.95097
rfingers 7.12502
rthumb -17.1041 -34.2181
lclavicle 2.16178e-014 -2.5842e-014
lhumerus 71.9855 -18.5108 -14.4603
lradius 30.8128
lwrist 14.0109
lhand -42.8252 11.1001
lfingers 7.12502
lthumb -15.69 40.4839
rfemur -9.49226 -6.23343 27.3101
rtibia 54.2719
rfoot -25.5335 -9.21282
rtoes -4.70559
lfemur -10.8954 2.38917 -11.1557
ltibia 58.1159
lfoot -20.2757 -9.81819
ltoes -11.9186
29
root 1.03334 16.4325 0.0684475 168.535 -7.76068 -172.548
lowerback 19.6036 -2.18714 2.29718
upperback 4.14046 -2.99878 1.31589
thorax -6.50562 -1.77715 0.88173
lowerneck -10.1433 -6.81484 -6.18646
upperneck -0.713903 -9.09814 10.9584
head 2.23041 -4.43588 3.80628
rclavicle -3.08116e-015 1.11319e-014
rhumerus 76.0946 13.4588 12.4915
rradius 39.9751
rwrist -65.1464
rhand -44.2829 -4.82101
rfingers 7.12502
rthumb -17.0935 -34.089
lclavicle -3.08116e-015 1.11319e-014
lhumerus 71.8343 -18.5536 -13.7983
lradius 30.6869
lwrist 13.2707
lhand -42.8315 10.9935
lfingers 7.12502
lthumb -15.6961 40.3769
rfemur -10.1842 -6.45349 27.3623
rtibia 55.9216
rfoot -26.2067 -8.94765
rtoes -5.08835
lfemur -11.9871 2.30366 -10.9325
ltibia 60.4343
lfoot -20.5108 -10.1394
ltoes -11.9986
